<svg width="60" height="60" viewBox="0 0 60 60" fill="none" xmlns="http://www.w3.org/2000/svg">
  <rect width="60" height="60" rx="12" fill="#2563EB"/>
  <path d="M15 20C15 18.8954 15.8954 18 17 18H43C44.1046 18 45 18.8954 45 20V40C45 41.1046 44.1046 42 43 42H17C15.8954 42 15 41.1046 15 40V20Z" fill="white"/>
  <path d="M20 25H40V27H20V25Z" fill="#2563EB"/>
  <path d="M20 30H35V32H20V30Z" fill="#2563EB"/>
  <path d="M20 35H30V37H20V35Z" fill="#2563EB"/>
  <circle cx="42" cy="22" r="3" fill="#10B981"/>
  <path d="M40 22L41 23L44 20" stroke="white" stroke-width="1.5" stroke-linecap="round" stroke-linejoin="round"/>
</svg>
